<svg xmlns="http://www.w3.org/2000/svg"  viewBox="0 0 64 64" width="64px" height="64px"><radialGradient id="JiV6nFVU6X~expaGMC1F3a" cx="32" cy="29.5" r="51.925" gradientTransform="translate(0 2)" gradientUnits="userSpaceOnUse"><stop offset="0" stop-color="#9ceeff"/><stop offset=".752" stop-color="#c5f5ff"/><stop offset="1" stop-color="#dcf9ff"/></radialGradient><path fill="url(#JiV6nFVU6X~expaGMC1F3a)" d="M60.5,30c1.995,0,3.6-1.669,3.495-3.688C63.896,24.419,62.197,23,60.302,23H59.5	c-0.828,0-1.5-0.671-1.5-1.5s0.672-1.5,1.5-1.5h0.802c1.895,0,3.594-1.419,3.693-3.312C64.1,14.669,62.495,13,60.5,13h-1.393	c-0.996,0-1.92-0.681-2.08-1.664C56.823,10.083,57.785,9,59,9h0.302c1.895,0,3.594-1.419,3.693-3.312C63.101,3.669,61.495,2,59.5,2	H4.698C2.803,2,1.104,3.419,1.005,5.312C0.899,7.331,2.505,9,4.5,9h0.393c0.996,0,1.92,0.681,2.08,1.664C7.177,11.917,6.215,13,5,13	H3.698c-1.895,0-3.594,1.419-3.693,3.312C-0.101,18.331,1.505,20,3.5,20C4.328,20,5,20.671,5,21.5S4.328,23,3.5,23h0.198	c-1.895,0-3.594,1.419-3.693,3.312C-0.101,28.331,1.505,30,3.5,30l0,0C4.328,30,5,30.672,5,31.5l0,0C5,32.328,4.328,33,3.5,33l0,0	c-1.995,0-3.6,1.669-3.495,3.688C0.104,38.581,1.803,40,3.698,40H4.5C5.328,40,6,40.671,6,41.5C6,42.328,5.328,43,4.5,43H3.698	c-1.895,0-3.594,1.419-3.693,3.312C-0.101,48.331,1.505,50,3.5,50h1.393c0.996,0,1.92,0.681,2.08,1.664C7.176,52.917,6.215,54,5,54	H4.698c-1.895,0-3.594,1.419-3.693,3.312C0.899,59.331,2.505,61,4.5,61h54.802c1.895,0,3.594-1.419,3.693-3.312	C63.1,55.669,61.495,54,59.5,54H59c-1.105,0-2-0.896-2-2l0,0c0-1.104,0.895-2,2-2h1.302c1.895,0,3.594-1.419,3.693-3.312	C64.1,44.669,62.495,43,60.5,43c-0.828,0-1.5-0.672-1.5-1.5l0,0c0-0.829,0.672-1.5,1.5-1.5h-0.198c1.895,0,3.594-1.419,3.693-3.312	C64.101,34.669,62.495,33,60.5,33l0,0c-0.828,0-1.5-0.672-1.5-1.5l0,0C59,30.672,59.672,30,60.5,30L60.5,30z"/><linearGradient id="JiV6nFVU6X~expaGMC1F3b" x1="32.16" x2="31.857" y1="65.858" y2="-1.946" gradientTransform="translate(0 2)" gradientUnits="userSpaceOnUse"><stop offset="0" stop-color="#dbdee1"/><stop offset=".085" stop-color="#dee1e4"/><stop offset=".606" stop-color="#eff1f2"/><stop offset="1" stop-color="#f5f6f7"/></linearGradient><path fill="url(#JiV6nFVU6X~expaGMC1F3b)" d="M46,8H18C12.48,8,8,12.48,8,18v28c0,5.52,4.48,10,10,10h28c5.52,0,10-4.48,10-10V18	C56,12.48,51.52,8,46,8z"/><linearGradient id="JiV6nFVU6X~expaGMC1F3c" x1="32.002" x2="32.002" y1="48" y2="20.009" gradientUnits="userSpaceOnUse"><stop offset="0" stop-color="#155cde"/><stop offset=".278" stop-color="#1f7fe5"/><stop offset=".569" stop-color="#279ceb"/><stop offset=".82" stop-color="#2cafef"/><stop offset="1" stop-color="#2eb5f0"/></linearGradient><path fill="url(#JiV6nFVU6X~expaGMC1F3c)" d="M32.354,48c-0.703,0-1.41-0.168-2.068-0.536c-2.047-1.147-2.784-3.55-1.635-5.597L30.851,38 h-4.909c-1.536-0.041-2.789-0.954-3.55-2.286s-0.214-3.536,0.25-4.357l5.434-9.156c1.204-2.016,3.932-2.834,5.949-1.63 c2.015,1.204,2.552,3.974,1.348,5.989L33.277,30h4.455c0.008,0,0.21,0,0.218,0c1.504,0,2.933,0.539,3.621,1.878 c0.393,0.764,0.679,3.05,0.046,4.236l-5.553,9.908C35.286,47.413,33.842,48,32.354,48z"/><linearGradient id="JiV6nFVU6X~expaGMC1F3d" x1="45.999" x2="45.999" y1="41.5" y2="58" gradientUnits="userSpaceOnUse"><stop offset="0" stop-color="#e6e6e6"/><stop offset=".619" stop-color="#d7d7d7"/><stop offset="1" stop-color="#cfcfcf"/><stop offset="1" stop-color="#cfcfcf"/></linearGradient><path fill="url(#JiV6nFVU6X~expaGMC1F3d)" d="M44.985,43c-0.719,0-1.426,0.363-1.743,1.009C42.498,45.523,43.585,47,45,47	c0.55,0,1.05,0.22,1.41,0.59C46.78,47.95,47,48.45,47,49s-0.22,1.05-0.59,1.41C46.05,50.78,45.55,51,45,51h-6.495	c-0.991,0-1.941,0.558-2.307,1.479C35.481,54.288,36.787,56,38.5,56H46c5.523,0,10-4.477,10-10v-3H44.985z"/><linearGradient id="JiV6nFVU6X~expaGMC1F3e" x1="16" x2="16" y1="12.3" y2="53.103" gradientTransform="matrix(1 0 0 -1 0 144)" gradientUnits="userSpaceOnUse"><stop offset="0" stop-color="#fff"/><stop offset="1" stop-color="#fafafb"/></linearGradient><path fill="url(#JiV6nFVU6X~expaGMC1F3e)" d="M23.77,9.444C23.387,8.547,22.458,8,21.482,8l-1.06,0H18C12.477,8,8,12.477,8,18v1.791h9.689	c0.83,0,1.625-0.469,1.932-1.24c0.609-1.526-0.492-2.971-1.936-2.971h-1.684c-0.699,0-1.263-0.564-1.263-1.263	c0-0.699,0.564-1.263,1.263-1.263h5.474C23.22,13.053,24.554,11.278,23.77,9.444z"/></svg>